<?xml version="1.0" encoding="UTF-8" standalone="no"?>
<svg
   xmlns="http://www.w3.org/2000/svg"
   id="svg6"
   version="1.1"
   width="496pt"
   viewBox="-92 0 496 496.00926"
   height="496pt">
  <defs
     id="defs10" />
  <path
     id="path4530"
     d="m 104.98322,257.1159 c 11.66428,-29.32316 12.17733,-30.66709 12.27957,-32.167 0.16513,-2.4224 -0.5921,-4.64945 -2.16381,-6.36387 -0.43645,-0.47608 -11.61185,-9.02307 -24.834199,-18.99331 L 66.224137,181.464 96.810381,181.35958 c 32.856079,-0.11224 31.014549,-0.0487 33.164059,-1.14253 1.21414,-0.61778 2.91613,-2.30197 3.52062,-3.4838 0.24978,-0.48834 4.46469,-12.99426 9.36645,-27.79095 l 8.9123,-26.90304 8.74807,25.59871 c 4.81144,14.07929 9.01329,26.34698 9.33743,27.26152 1.06383,3.00145 2.91974,4.90854 5.68997,5.84685 1.22399,0.41459 1.38576,0.41672 31.50464,0.41672 h 30.27437 l -24.45965,18.44787 c -26.93308,20.31334 -25.65139,19.24342 -26.5281,22.14552 -0.32327,1.07011 -0.39707,1.74415 -0.33052,3.01886 0.0849,1.62747 0.18706,1.89602 12.27799,32.29172 6.70579,16.85784 12.15629,30.65061 12.11223,30.65061 -0.044,0 -12.36137,-8.23712 -27.37182,-18.30472 -21.25221,-14.25398 -27.5788,-18.40487 -28.58899,-18.75725 -1.75445,-0.61202 -3.83372,-0.61202 -5.58818,0 -1.01018,0.35238 -7.33677,4.50327 -28.58899,18.75725 -15.01045,10.0676 -27.327766,18.30472 -27.371825,18.30472 -0.04408,0 5.397696,-13.77075 12.092785,-30.60168 z"
     style="fill:#258e25;fill-opacity:1;stroke-width:0.20012212" />
  <path
     style="stroke-width:0.0750014;stroke-miterlimit:4;stroke-dasharray:none"
     id="path2"
     d="M 102.55212,226.50721 72.825553,300.8119 c -1.285157,3.25391 -0.308594,6.96094 2.410156,9.16016 2.71875,2.19921 6.550781,2.3789 9.460937,0.4414 l 67.558594,-45.02344 67.5625,45.03907 c 2.91016,1.9375 6.74219,1.75781 9.46094,-0.44141 2.71875,-2.19922 3.69531,-5.90625 2.41015,-9.16016 l -29.73046,-74.32031 59.09765,-44.32031 c 2.75391,-2.06641 3.87891,-5.66016 2.78906,-8.92969 -1.08984,-3.26562 -4.14453,-5.46875 -7.58984,-5.46875 h -73.55859 l -22.8711,-66.60156 c -1.11328,-3.230469 -4.15234,-5.398438 -7.57031,-5.398438 -3.43359,0.01172 -6.47266,2.214844 -7.55859,5.472658 l -22.20704,66.52734 H 48.25524 c -3.441406,0 -6.5,2.20313 -7.589844,5.46875 -1.085937,3.26953 0.03516,6.86328 2.789063,8.92969 z m 25.70312,-42.71875 c 3.44531,0 6.50391,-2.20312 7.59375,-5.47265 l 16.51953,-49.59766 17.05469,49.59766 c 1.10937,3.23046 4.14844,5.39843 7.5625,5.40234 h 55.26953 l -44.80078,33.59766 c -2.89453,2.17187 -3.97656,6.01562 -2.62891,9.375 l 22.4375,56.08203 -50.5664,-33.71094 c -2.6875,-1.79688 -6.19141,-1.79688 -8.87891,0 l -50.570312,33.71094 22.441402,-56.08203 c 1.3086,-3.33985 0.23047,-7.14063 -2.63281,-9.30079 L 72.25524,183.78846 Z m 0,0" />
  <path
     style="fill:#000000;fill-opacity:1"
     id="path4"
     d="m304.003906 0h-296c-4.417968 0-7.99999975 3.582031-7.99999975 8v480c-.00390625 3.152344 1.84765575 6.015625 4.72265575 7.308594 2.875 1.289062 6.242188.773437 8.597657-1.324219l138.824219-123.410156 146.703124 123.546875c2.382813 2.003906 5.707032 2.445312 8.527344 1.132812 2.820313-1.3125 4.625-4.144531 4.625-7.253906v-480c0-4.417969-3.582031-8-8-8zm-8 470.808594-138.839844-116.929688c-3.039062-2.5625-7.5-2.503906-10.472656.136719l-130.6875 116.167969v-454.183594h280zm0 0" />
</svg>
